<svg width="1100" height="1564" viewBox="0 0 1100 1564" fill="none" xmlns="http://www.w3.org/2000/svg">
<path fill-rule="evenodd" clip-rule="evenodd" d="M200.015 21.5125C222.324 2.39028 241.446 -3.98379 266.942 2.39028C282.877 5.57731 327.496 59.7569 343.431 72.505C359.366 88.4402 359.366 110.749 343.431 126.685C126.713 324.281 126.713 671.668 340.244 872.451C359.366 891.573 359.366 913.882 337.057 933.004C317.935 948.94 302 964.875 286.064 983.997C266.942 1003.12 228.698 1009.49 206.389 990.371C-64.5093 722.66 -70.8834 298.784 200.015 21.5125Z" fill="#EE4E5D"/>
<path fill-rule="evenodd" clip-rule="evenodd" d="M407.175 231.857C426.298 212.735 445.42 206.361 470.916 209.548C490.038 212.735 537.844 263.727 550.592 279.662C569.714 295.598 569.714 317.907 550.592 337.029C448.607 432.64 451.794 572.87 550.592 665.294C566.527 681.229 566.527 703.538 550.592 719.473L490.038 780.027C474.103 795.962 432.672 799.149 416.736 783.214C260.572 627.049 251.011 394.396 407.175 231.857V231.857ZM897.979 1541.73C878.856 1560.85 856.547 1567.22 831.051 1560.85C815.116 1557.66 767.31 1503.48 754.562 1490.74C738.627 1474.8 738.627 1449.3 754.562 1433.37C971.28 1235.77 971.28 888.386 757.749 687.603C738.627 668.481 738.627 642.984 760.936 627.049C780.058 611.114 795.994 595.179 811.929 576.057C831.051 556.934 869.295 550.56 888.418 569.683C1165.69 840.581 1172.06 1264.46 897.979 1541.73V1541.73Z" fill="#EE4E5D"/>
<path fill-rule="evenodd" clip-rule="evenodd" d="M694.01 1331.37C674.888 1350.49 655.766 1356.86 630.269 1353.68C611.147 1350.49 563.342 1299.5 550.594 1283.56C531.471 1267.63 531.471 1245.32 550.594 1226.2C652.579 1130.58 649.392 993.542 550.594 897.931C534.658 881.996 534.658 859.687 550.594 843.752L611.147 783.198C627.082 767.263 668.514 764.076 684.449 783.198C840.614 936.176 850.175 1168.83 694.01 1331.37V1331.37Z" fill="#EE4E5D"/>
</svg>
