<svg width="1500" height="1500" viewBox="0 0 1500 1500" fill="none" xmlns="http://www.w3.org/2000/svg">
<path d="M0 718.75C0 379.928 0 210.517 105.258 105.258C210.517 0 379.928 0 718.75 0H781.25C1120.08 0 1289.48 0 1394.74 105.258C1500 210.517 1500 379.928 1500 718.75V781.25C1500 1120.08 1500 1289.48 1394.74 1394.74C1289.48 1500 1120.08 1500 781.25 1500H718.75C379.928 1500 210.517 1500 105.258 1394.74C0 1289.48 0 1120.08 0 781.25V718.75Z" fill="#2787F5"/>
<path fill-rule="evenodd" clip-rule="evenodd" d="M406.35 468.75H296.95C265.693 468.75 259.44 483.463 259.44 499.682C259.44 528.653 296.53 672.338 432.134 862.375C522.538 992.15 649.906 1062.5 765.809 1062.5C835.349 1062.5 843.957 1046.88 843.957 1019.97V921.875C843.957 890.625 850.54 884.383 872.557 884.383C888.79 884.383 916.607 892.5 981.507 955.075C1055.69 1029.23 1067.92 1062.5 1109.64 1062.5H1219.04C1250.3 1062.5 1265.92 1046.88 1256.91 1016.04C1247.04 985.308 1211.63 940.717 1164.63 887.867C1139.13 857.733 1100.89 825.293 1089.3 809.069C1073.07 788.213 1077.71 778.941 1089.3 760.403C1089.3 760.403 1222.58 572.684 1236.49 508.957C1243.45 485.778 1236.49 468.75 1203.41 468.75H1094.01C1066.19 468.75 1053.37 483.463 1046.42 499.682C1046.42 499.682 990.782 635.256 911.965 723.322C886.465 748.813 874.882 756.925 860.965 756.925C854.015 756.925 843.948 748.813 843.948 725.641V508.957C843.948 481.144 835.882 468.75 812.693 468.75H640.778C623.397 468.75 612.94 481.656 612.94 493.891C612.94 520.253 652.347 526.334 656.409 600.493V761.563C656.409 796.875 650.028 803.278 636.122 803.278C599.034 803.278 508.819 667.097 455.313 511.272C444.828 480.984 434.309 468.75 406.35 468.75Z" fill="white"/>
</svg>
