<svg width="1500" height="980" viewBox="0 0 1500 980" fill="none" xmlns="http://www.w3.org/2000/svg">
<path d="M1500 0H1175.66V189.768H1500V0Z" fill="#40AB5D"/>
<path d="M1500 263.104H1175.66V452.873H1500V263.104Z" fill="url(#paint0_linear)"/>
<path d="M1500 526.208H1175.66V715.977H1500V526.208Z" fill="url(#paint1_linear)"/>
<path d="M324.345 789.312H0V979.081H324.345V789.312Z" fill="url(#paint2_linear)"/>
<path d="M715.98 789.312H391.635V979.081H715.98V789.312Z" fill="url(#paint3_linear)"/>
<path d="M1108.37 789.312H784.021V979.081H1108.37V789.312Z" fill="url(#paint4_linear)"/>
<path d="M1500 789.312H1175.66V979.081H1500V789.312Z" fill="url(#paint5_linear)"/>
<path d="M1108.37 526.208H784.021V715.977H1108.37V526.208Z" fill="url(#paint6_linear)"/>
<path d="M715.98 526.208H391.635V715.977H715.98V526.208Z" fill="url(#paint7_linear)"/>
<path d="M715.98 263.104H391.635V452.873H715.98V263.104Z" fill="url(#paint8_linear)"/>
<defs>
<linearGradient id="paint0_linear" x1="1339.42" y1="454.512" x2="1336.37" y2="260.318" gradientUnits="userSpaceOnUse">
<stop stop-color="#358C7B"/>
<stop offset="0.5256" stop-color="#33A65E"/>
</linearGradient>
<linearGradient id="paint1_linear" x1="1170.89" y1="706.233" x2="1504.92" y2="536.036" gradientUnits="userSpaceOnUse">
<stop stop-color="#222B90"/>
<stop offset="1" stop-color="#367B99"/>
</linearGradient>
<linearGradient id="paint2_linear" x1="0.0593164" y1="884.27" x2="324.133" y2="884.27" gradientUnits="userSpaceOnUse">
<stop stop-color="#FF9900"/>
<stop offset="1" stop-color="#FF8000"/>
</linearGradient>
<linearGradient id="paint3_linear" x1="391.997" y1="884.27" x2="716.07" y2="884.27" gradientUnits="userSpaceOnUse">
<stop stop-color="#FF8000"/>
<stop offset="1" stop-color="#CC1953"/>
</linearGradient>
<linearGradient id="paint4_linear" x1="783.928" y1="884.27" x2="1108" y2="884.27" gradientUnits="userSpaceOnUse">
<stop stop-color="#CC1953"/>
<stop offset="1" stop-color="#241284"/>
</linearGradient>
<linearGradient id="paint5_linear" x1="1175.48" y1="884.27" x2="1499.56" y2="884.27" gradientUnits="userSpaceOnUse">
<stop stop-color="#222B90"/>
<stop offset="1" stop-color="#3559A6"/>
</linearGradient>
<linearGradient id="paint6_linear" x1="771.137" y1="672.258" x2="1120.79" y2="570.011" gradientUnits="userSpaceOnUse">
<stop stop-color="#CC1953"/>
<stop offset="1" stop-color="#241284"/>
</linearGradient>
<linearGradient id="paint7_linear" x1="380.461" y1="557.959" x2="727.605" y2="684.311" gradientUnits="userSpaceOnUse">
<stop offset="0.00266984" stop-color="#FFCC00"/>
<stop offset="0.9999" stop-color="#CE1938"/>
</linearGradient>
<linearGradient id="paint8_linear" x1="419.235" y1="233.613" x2="688.831" y2="482.386" gradientUnits="userSpaceOnUse">
<stop offset="0.00266984" stop-color="#FFD100"/>
<stop offset="1" stop-color="#FD5A22"/>
</linearGradient>
</defs>
</svg>
