<?xml version="1.0" encoding="UTF-8" standalone="no"?>
<!-- Creator: CorelDRAW -->

<svg
   xml:space="preserve"
   width="6230px"
   height="6230px"
   version="1.1"
   style="shape-rendering:geometricPrecision; text-rendering:geometricPrecision; image-rendering:optimizeQuality; fill-rule:evenodd; clip-rule:evenodd"
   viewBox="0 0 915.97 915.97"
   id="svg7"
   sodipodi:docname="site_logo_white.svg"
   inkscape:version="1.3 (0e150ed6c4, 2023-07-21)"
   xmlns:inkscape="http://www.inkscape.org/namespaces/inkscape"
   xmlns:sodipodi="http://sodipodi.sourceforge.net/DTD/sodipodi-0.dtd"
   xmlns="http://www.w3.org/2000/svg"
   xmlns:svg="http://www.w3.org/2000/svg"><sodipodi:namedview
   id="namedview7"
   pagecolor="#ffffff"
   bordercolor="#cccccc"
   borderopacity="1"
   inkscape:showpageshadow="0"
   inkscape:pageopacity="1"
   inkscape:pagecheckerboard="0"
   inkscape:deskcolor="#d1d1d1"
   inkscape:zoom="0.065471012"
   inkscape:cx="1985.6116"
   inkscape:cy="2940.2325"
   inkscape:window-width="1920"
   inkscape:window-height="1017"
   inkscape:window-x="0"
   inkscape:window-y="35"
   inkscape:window-maximized="1"
   inkscape:current-layer="Слой_x0020_1" />&#10; <defs
   id="defs1">&#10;  <style
   type="text/css"
   id="style1">&#10;   <![CDATA[
    .fil2 {fill:black}
    .fil4 {fill:#003BB7}
    .fil0 {fill:#E6E6E6}
    .fil3 {fill:black;fill-rule:nonzero}
    .fil1 {fill:#003BB7;fill-rule:nonzero}
   ]]>&#10;  </style>&#10; &#10;   &#10;   &#10;  &#10;    &#10;    &#10;    &#10;    &#10;    &#10;    &#10;   </defs>&#10; <g
   id="Слой_x0020_1"
   inkscape:label="Слой 1">&#10;  <metadata
   id="CorelCorpID_0Corel-Layer" />&#10;  &#10;  &#10;  <path
   class="fil2"
   d="m 769.1455,787.32567 c 39.34729,0 71.25809,-31.91079 71.25809,-71.27813 0,-39.34729 -31.9108,-71.25809 -71.25809,-71.25809 -7.77726,0 -15.2338,1.24276 -22.22932,3.52783 l 12.06677,35.27827 -2.72605,1.70378 -23.37185,-30.62795 c -20.96651,12.40752 -35.01768,35.25822 -35.01768,61.37616 0,39.36734 31.91079,71.27813 71.27813,71.27813 z"
   id="path2"
   style="stroke-width:2.00445;fill:#ffffff" /><path
   class="fil3"
   d="m 122.17017,433.40048 c 3.70823,-5.99329 7.87748,-12.50775 12.50775,-19.54335 6.55454,-9.9621 10.82401,-16.37633 12.82846,-19.24269 l 81.84157,56.90624 c -6.33405,9.0601 -10.22268,14.71264 -11.66588,16.89749 -3.34743,5.11134 -6.99552,10.84406 -10.94428,17.19816 z m 40.16912,-59.21136 c 32.15133,-43.37623 68.19128,-83.48521 107.55862,-119.7657 39.40742,-36.34062 82.22241,-68.99306 127.90376,-97.41612 l 52.61673,84.56762 c -40.44974,25.17585 -78.31374,54.03988 -113.11094,86.11103 -35.01769,32.29164 -66.86835,67.69018 -95.09096,105.73458 z"
   id="path3"
   style="stroke-width:2.00445;fill:#ffffff" /><path
   class="fil3"
   d="m 155.74466,881.53468 c 0,-115.81694 28.60345,-225.15952 79.15561,-321.35293 52.31606,-99.56088 128.26455,-184.81 220.36889,-248.35097 l 56.5254,81.84157 C 432.91957,448.07303 367.87527,521.15517 322.97566,606.54461 279.9001,688.52649 255.50598,782.07402 255.50598,881.53468 Z M 503.93713,281.00239 c 51.25371,-29.42528 106.87711,-52.49647 165.7878,-68.13115 57.02652,-15.15362 116.67886,-23.23154 177.91471,-23.23154 v 99.78136 c -53.03767,0 -104.17111,6.85521 -152.5785,19.70372 -49.93077,13.26943 -97.45621,33.03328 -141.63422,58.38953 z"
   id="path4"
   style="stroke-width:2.00445;fill:#ffffff" /><path
   class="fil3"
   d="m 440.83714,881.53468 c 0,-72.96187 19.34291,-141.57409 53.23811,-201.00594 35.07782,-61.53652 85.67006,-113.01071 146.4048,-149.03063 l 50.65237,85.7302 c -45.94192,27.26048 -84.14668,66.06657 -110.54524,112.38934 -25.45648,44.65907 -39.98872,96.49407 -39.98872,151.91703 z M 689.50882,506.82337 c 24.59457,-10.38303 50.49202,-18.44091 77.41174,-23.87296 26.73932,-5.39196 53.73922,-8.21823 80.71908,-8.21823 v 99.76132 c -21.64803,0 -42.09339,2.02449 -61.23585,5.89307 -20.1447,4.06903 -39.66801,10.14251 -58.30936,18.01998 z"
   id="path5"
   style="stroke-width:2.00445;fill:#ffffff" /><path
   class="fil4"
   d="m 399.18473,96.833805 93.86825,164.885805 c 33.59453,-19.26274 68.91289,-35.83951 105.6544,-49.50984 L 533.02165,34.435373 C 486.4784,51.633527 441.75919,72.559953 399.18473,96.833805 Z"
   id="path6"
   style="stroke-width:2.00445" /><path
   class="fil3"
   d="m 74.243847,700.27254 c 163.522773,0 311.551183,-66.28706 418.708913,-173.42474 C 600.09045,419.69007 666.37751,271.66166 666.37751,108.15893 h 99.76132 c 0,191.04383 -77.45183,364.00756 -202.64958,489.22535 -125.2178,125.2178 -298.18152,202.64959 -489.245403,202.64959 z"
   id="path7"
   style="stroke-width:2.00445;fill:#ffffff" /><polygon
   class="fil2"
   points="295.42,157.11 293.05,144.32 305.85,146.69 313.22,135.96 320.59,146.69 333.38,144.32 331.01,157.11 341.73,164.48 331.01,171.85 333.38,184.64 320.59,182.27 313.22,193 305.85,182.27 293.05,184.64 295.42,171.85 284.7,164.48 "
   id="polygon7"
   transform="matrix(2.0044469,0,0,2.0044469,-426.4269,-163.64407)"
   style="fill:#ffffff" />&#10; </g>&#10;</svg>
