<svg width="28" height="28" viewBox="0 0 28 28" fill="none" xmlns="http://www.w3.org/2000/svg">
<g clip-path="url(#clip0_807_20)">
<path d="M-5.59434 28.0219C-5.59129 26.4982 -3.27064 25.002 -1.80802 24.2905C0.240871 23.292 2.71115 24.1409 3.70964 26.1898C4.70813 28.2387 3.85925 30.709 1.81036 31.7075C1.19356 32.0098 -0.168297 32.8465 -0.80953 32.8312H-5.73176L-5.59434 28.0219ZM-4.63556 18.4919C-9.88756 21.0538 -12.0677 27.3868 -9.50588 32.6389C-6.944 37.8909 -0.614108 40.0681 4.63789 37.5092C9.8899 34.9504 12.0702 28.6143 9.50821 23.3623C6.94633 18.1102 0.613394 15.93 -4.63556 18.4919ZM-7.46614 12.6932C-15.9212 16.8155 -19.4297 27.0112 -15.3075 35.4664C-11.1852 43.9217 -0.989685 47.4302 7.46544 43.3079C15.9206 39.1856 19.4291 28.9899 15.3069 20.5347C11.1846 12.0795 0.988979 8.56792 -7.46614 12.6932ZM-10.2936 6.89459C-21.9519 12.5772 -26.7916 26.6387 -21.106 38.294C-15.4204 49.9493 -1.36222 54.7922 10.2961 49.1065C21.9543 43.4209 26.791 29.3624 21.1054 17.7041C15.4198 6.04571 1.3615 1.20892 -10.2936 6.89459Z" stroke="url(#paint0_linear_807_20)" stroke-width="3.5" stroke-miterlimit="10"/>
</g>
<defs>
<linearGradient id="paint0_linear_807_20" x1="17.5827" y1="45.813" x2="-17.5819" y2="10.188" gradientUnits="userSpaceOnUse">
<stop stop-color="#F212FF"/>
<stop offset="0.35" stop-color="#5AAFFF"/>
<stop offset="0.4318" stop-color="#59B3FF"/>
<stop offset="0.5087" stop-color="#55BEFF"/>
<stop offset="0.5835" stop-color="#4FD1FF"/>
<stop offset="0.6567" stop-color="#46ECFF"/>
<stop offset="0.7" stop-color="#40FFFF"/>
</linearGradient>
<clipPath id="clip0_807_20">
<rect width="28" height="28" fill="white"/>
</clipPath>
</defs>
</svg>
