<svg width="1500" height="1497" viewBox="0 0 1500 1497" fill="none" xmlns="http://www.w3.org/2000/svg">
<path d="M303.483 144.361C414.511 62.0905 545.733 12.3576 682.5 0V226.313C594.094 237.775 509.662 271.623 437.437 325.138C347.006 392.15 280.501 486.448 247.736 594.129C214.972 701.806 217.68 817.165 255.463 923.191C293.245 1029.21 364.101 1120.29 457.579 1182.98C551.062 1245.67 662.212 1276.66 774.642 1271.38C887.072 1266.09 994.828 1224.82 1082.02 1153.64C1169.2 1082.45 1231.21 985.137 1258.88 876.04C1278.19 799.938 1280.08 720.921 1264.95 644.74L1455 491.956L1454.87 490.723C1506.17 631.84 1514.01 785.365 1476.97 931.362C1437.44 1087.22 1348.87 1226.24 1224.31 1327.93C1099.76 1429.61 945.82 1488.58 785.203 1496.13C624.59 1503.68 465.801 1459.4 332.259 1369.84C198.718 1280.29 97.4948 1150.18 43.5192 998.721C-10.456 847.259 -14.326 682.46 32.4806 528.631C79.2872 374.802 174.292 240.089 303.483 144.361Z" fill="#FCCA00"/>
<path d="M1311.7 249.963L1312.5 251.958L1185.5 453.666C1139.32 385.223 1077.43 328.256 1005 287.939V746.958C1005 887.789 890.831 1001.96 750 1001.96C609.169 1001.96 495 887.789 495 746.958C495 606.126 609.169 491.958 750 491.958C802.781 491.958 851.817 507.994 892.5 535.458V10.478C1058.05 42.3216 1204.24 128.603 1311.7 249.963Z" fill="#FC3F1D"/>
</svg>
