<?xml version="1.0" encoding="utf-8"?>
<!-- Generator: Adobe Illustrator 22.1.0, SVG Export Plug-In . SVG Version: 6.00 Build 0)  -->
<svg version="1.1" id="Layer_1" xmlns="http://www.w3.org/2000/svg" xmlns:xlink="http://www.w3.org/1999/xlink" x="0px" y="0px"
	 viewBox="0 0 19 19" style="enable-background:new 0 0 19 19;" xml:space="preserve">
<style type="text/css">
	.st0{fill:#0066D9;}
	.st1{fill:#4285F4;}
	.st2{fill:#EA4335;}
	.st3{fill:#34A853;}
	.st4{fill:#FAB908;}
</style>
<path class="st0" d="M2.4,8.9v1.3c0,0.7-0.5,1.2-1.2,1.2c-0.7,0-1.2-0.5-1.2-1.2V8.9c0-0.7,0.5-1.2,1.2-1.2C1.8,7.7,2.4,8.2,2.4,8.9
	z"/>
<path class="st1" d="M16.6,8.9C16.6,8.9,16.6,8.9,16.6,8.9c0-0.7,0.5-1.2,1.2-1.2S19,8.2,19,8.9c0,0,0,0,0,0h0v1.3h0
	c0,0.6-0.5,1.2-1.2,1.2s-1.2-0.5-1.2-1.2h0L16.6,8.9L16.6,8.9L16.6,8.9z"/>
<path class="st2" d="M6.5,12.7V14c0,0.7-0.5,1.2-1.2,1.2S4.1,14.7,4.1,14v-1.3c0-0.7,0.5-1.2,1.2-1.2C5.9,11.6,6.5,12.1,6.5,12.7
	L6.5,12.7z M6.5,5v4.2h0c0,0.6-0.5,1.2-1.2,1.2S4.1,9.8,4.1,9.2h0V5c0-0.7,0.5-1.2,1.2-1.2C5.9,3.8,6.5,4.3,6.5,5z"/>
<path class="st3" d="M12.5,6.3c0,0.7,0.5,1.2,1.2,1.2c0.7,0,1.2-0.5,1.2-1.2V5c0-0.7-0.5-1.2-1.2-1.2c-0.7,0-1.2,0.5-1.2,1.2V6.3z"
	/>
<path class="st4" d="M8.3,2.5c0,0.7,0.5,1.2,1.2,1.2c0.7,0,1.2-0.5,1.2-1.2V1.2c0-0.7-0.5-1.2-1.2-1.2C8.8,0,8.3,0.5,8.3,1.2V2.5z
	 M8.3,16.5c0-0.7,0.5-1.2,1.2-1.2c0.7,0,1.2,0.5,1.2,1.2v1.3c0,0.7-0.5,1.2-1.2,1.2c-0.7,0-1.2-0.5-1.2-1.2V16.5z"/>
<path class="st3" d="M12.5,9.8c0-0.7,0.5-1.2,1.2-1.2c0.7,0,1.2,0.5,1.2,1.2V14c0,0.7-0.5,1.2-1.2,1.2c-0.7,0-1.2-0.5-1.2-1.2V9.8z"
	/>
<path class="st4" d="M10.7,6V13c0,0.7-0.5,1.2-1.2,1.2c-0.7,0-1.2-0.5-1.2-1.2V6c0-0.7,0.5-1.2,1.2-1.2C10.2,4.9,10.7,5.4,10.7,6z"
	/>
</svg>
