<svg width="1500" height="1500" viewBox="0 0 1500 1500" fill="none" xmlns="http://www.w3.org/2000/svg">
<path fill-rule="evenodd" clip-rule="evenodd" d="M750 1500C334.369 1500 0 1165.63 0 750C0 334.369 334.369 0 750 0C1165.63 0 1500 334.369 1500 750C1500 1165.63 1165.63 1500 750 1500ZM750 1203.13L806.25 1146.88L750 931.256L693.75 1146.88L750 1203.13ZM678.131 1200L650.006 1306.26L715.631 1240.63L678.131 1200ZM821.869 1200L784.369 1237.5L849.994 1303.12L821.869 1200ZM875.006 1393.74L750 1268.76L624.994 1393.74C665.625 1400.01 706.256 1406.25 750 1406.25C793.744 1406.25 834.375 1403.12 875.006 1393.74ZM750 93.75C387.506 93.75 93.75 387.506 93.75 750C93.75 1037.49 278.119 1281.24 534.375 1368.75L675 846.881C643.744 825 624.994 787.5 624.994 746.869C624.994 678.131 681.244 621.881 750 621.881C818.756 621.881 875.006 678.131 875.006 746.869C875.006 787.5 856.256 821.869 825 846.881L965.625 1368.75C1221.88 1281.24 1406.25 1037.49 1406.25 750C1406.25 387.506 1112.49 93.75 750 93.75ZM1178.12 1074.99C1162.5 1093.74 1134.38 1100.01 1112.49 1084.37C1090.63 1068.75 1087.5 1040.62 1103.12 1021.88C1103.12 1021.88 1187.49 909.375 1187.49 750C1187.49 590.625 1103.12 478.125 1103.12 478.125C1087.5 459.375 1090.63 431.25 1112.49 415.631C1134.38 399.994 1162.5 406.256 1178.12 425.006C1184.38 431.25 1281.24 559.369 1281.24 750C1281.24 940.631 1184.38 1068.75 1178.12 1074.99ZM950.006 953.119C931.256 934.369 934.369 900 953.119 881.25C953.119 881.25 999.994 831.244 999.994 750C999.994 668.756 953.119 621.881 953.119 618.75C934.369 600 934.369 568.744 950.006 546.881C968.756 525 996.881 525 1015.63 543.75C1018.74 546.881 1093.74 624.994 1093.74 750C1093.74 875.006 1018.74 953.119 1015.63 956.25C996.881 975 968.756 971.869 950.006 953.119ZM549.994 953.119C531.244 971.869 503.119 975 484.369 956.25C481.256 950.006 406.256 875.006 406.256 750C406.256 624.994 481.256 549.994 484.369 543.75C503.119 525 534.375 525 549.994 546.881C568.744 565.631 565.631 600 546.881 618.75C546.881 621.881 500.006 668.756 500.006 750C500.006 831.244 546.881 881.25 546.881 881.25C565.631 900 568.744 931.256 549.994 953.119ZM387.506 1084.37C365.625 1100.01 337.5 1093.74 321.881 1074.99C315.619 1068.75 218.756 940.631 218.756 750C218.756 559.369 315.619 431.25 321.881 425.006C337.5 406.256 365.625 399.994 387.506 415.631C409.369 431.25 412.5 459.375 396.881 478.125C396.881 478.125 312.506 590.625 312.506 750C312.506 909.375 396.881 1021.88 396.881 1021.88C412.5 1040.62 406.256 1068.75 387.506 1084.37Z" fill="#FC7E0F"/>
</svg>
