<svg width="1500" height="1500" viewBox="0 0 1500 1500" fill="none" xmlns="http://www.w3.org/2000/svg">
<path fill-rule="evenodd" clip-rule="evenodd" d="M1500 750C1500 1164.22 1164.22 1500 750 1500C335.778 1500 0 1164.22 0 750C0 335.778 335.778 0 750 0C1164.22 0 1500 335.778 1500 750Z" fill="#F43E37"/>
<path fill-rule="evenodd" clip-rule="evenodd" d="M166.663 749.995C166.663 427.829 427.829 166.662 749.996 166.662C1072.16 166.662 1333.33 427.829 1333.33 749.995H1187.5C1187.5 508.37 991.621 312.495 749.996 312.495C508.371 312.495 312.496 508.37 312.496 749.995C312.496 991.62 508.371 1187.5 749.996 1187.5V1333.33C427.829 1333.33 166.663 1072.16 166.663 749.995ZM749.996 1100C556.696 1100 399.996 943.295 399.996 749.995C399.996 556.695 556.696 399.995 749.996 399.995C943.296 399.995 1100 556.695 1100 749.995H972.724C972.724 626.987 873.004 527.268 749.996 527.268C626.988 527.268 527.268 626.987 527.268 749.995C527.268 873.004 626.988 972.723 749.996 972.723V1100Z" fill="white"/>
</svg>
